# Blender 4.0.2
# www.blender.org
mtllib sphere.mtl
o Cube
v 0.000000 0.500000 -0.866025
v 0.000000 -0.500000 -0.866025
v 0.250000 0.866025 -0.433013
v 0.433013 0.500000 -0.750000
v 0.500000 0.000000 -0.866025
v 0.433013 -0.500000 -0.750000
v 0.250000 -0.866025 -0.433013
v 0.433013 0.866025 -0.250000
v 0.750000 0.500000 -0.433013
v 0.866025 0.000000 -0.500000
v 0.750000 -0.500000 -0.433013
v 0.433013 -0.866025 -0.250000
v 0.500000 0.866025 0.000000
v 0.866025 0.500000 0.000000
v 1.000000 0.000000 0.000000
v 0.866025 -0.500000 0.000000
v 0.500000 -0.866025 0.000000
v 0.433013 0.866025 0.250000
v 0.750000 0.500000 0.433013
v 0.866025 0.000000 0.500000
v 0.750000 -0.500000 0.433013
v 0.433013 -0.866025 0.250000
v 0.250000 0.866025 0.433013
v 0.433013 0.500000 0.750000
v 0.500000 0.000000 0.866025
v 0.433013 -0.500000 0.750000
v 0.250000 -0.866025 0.433013
v 0.000000 0.866025 0.500000
v -0.000000 0.500000 0.866025
v 0.000000 0.000000 1.000000
v -0.000000 -0.500000 0.866025
v 0.000000 -0.866025 0.500000
v 0.000000 1.000000 0.000000
v -0.250000 0.866025 0.433013
v -0.433013 0.500000 0.750000
v -0.500000 0.000000 0.866025
v -0.433013 -0.500000 0.750000
v -0.250000 -0.866025 0.433013
v 0.000000 -1.000000 0.000000
v -0.433013 0.866025 0.250000
v -0.750000 0.500000 0.433013
v -0.866025 0.000000 0.500000
v -0.750000 -0.500000 0.433013
v -0.433013 -0.866025 0.250000
v -0.500000 0.866025 0.000000
v -0.866025 0.500000 -0.000000
v -1.000000 0.000000 0.000000
v -0.866025 -0.500000 -0.000000
v -0.500000 -0.866025 0.000000
v -0.433013 0.866025 -0.250000
v -0.750000 0.500000 -0.433013
v -0.866025 0.000000 -0.500000
v -0.750000 -0.500000 -0.433013
v -0.433013 -0.866025 -0.250000
v -0.250000 0.866025 -0.433013
v -0.433013 0.500000 -0.750000
v -0.500000 0.000000 -0.866025
v -0.433013 -0.500000 -0.750000
v -0.250000 -0.866025 -0.433013
v 0.000000 0.866025 -0.500000
v 0.000000 0.000000 -1.000000
v 0.000000 -0.866025 -0.500000
vn 0.1862 0.6947 -0.6947
vn 0.1862 -0.6947 -0.6947
vn 0.2506 0.2506 -0.9351
vn 0.0692 0.9636 -0.2582
vn 0.0692 -0.9636 -0.2582
vn 0.2506 -0.2506 -0.9351
vn 0.5086 -0.6947 -0.5086
vn 0.6846 0.2506 -0.6846
vn 0.1890 0.9636 -0.1890
vn 0.1890 -0.9636 -0.1890
vn 0.6846 -0.2506 -0.6846
vn 0.5086 0.6947 -0.5086
vn 0.6947 -0.6947 -0.1862
vn 0.9351 0.2506 -0.2506
vn 0.2582 0.9636 -0.0692
vn 0.2582 -0.9636 -0.0692
vn 0.9351 -0.2506 -0.2506
vn 0.6947 0.6947 -0.1862
vn 0.9351 0.2506 0.2506
vn 0.2582 0.9636 0.0692
vn 0.2582 -0.9636 0.0692
vn 0.9351 -0.2506 0.2506
vn 0.6947 0.6947 0.1862
vn 0.6947 -0.6947 0.1862
vn 0.1890 0.9636 0.1890
vn 0.1890 -0.9636 0.1890
vn 0.6846 -0.2506 0.6846
vn 0.5086 0.6947 0.5086
vn 0.5086 -0.6947 0.5086
vn 0.6846 0.2506 0.6846
vn 0.0692 -0.9636 0.2582
vn 0.2506 -0.2506 0.9351
vn 0.1862 0.6947 0.6947
vn 0.1862 -0.6947 0.6947
vn 0.2506 0.2506 0.9351
vn 0.0692 0.9636 0.2582
vn -0.0692 -0.9636 0.2582
vn -0.2506 -0.2506 0.9351
vn -0.1862 0.6947 0.6947
vn -0.1862 -0.6947 0.6947
vn -0.2506 0.2506 0.9351
vn -0.0692 0.9636 0.2582
vn -0.1890 -0.9636 0.1890
vn -0.6846 -0.2506 0.6846
vn -0.5086 0.6947 0.5086
vn -0.5086 -0.6947 0.5086
vn -0.6846 0.2506 0.6846
vn -0.1890 0.9636 0.1890
vn -0.9351 -0.2506 0.2506
vn -0.6947 0.6947 0.1862
vn -0.6947 -0.6947 0.1862
vn -0.9351 0.2506 0.2506
vn -0.2582 0.9636 0.0692
vn -0.2582 -0.9636 0.0692
vn -0.6947 0.6947 -0.1862
vn -0.6947 -0.6947 -0.1862
vn -0.9351 0.2506 -0.2506
vn -0.2582 0.9636 -0.0692
vn -0.2582 -0.9636 -0.0692
vn -0.9351 -0.2506 -0.2506
vn -0.5086 -0.6947 -0.5086
vn -0.6846 0.2506 -0.6846
vn -0.1890 0.9636 -0.1890
vn -0.1890 -0.9636 -0.1890
vn -0.6846 -0.2506 -0.6846
vn -0.5086 0.6947 -0.5086
vn -0.1862 -0.6947 -0.6947
vn -0.2506 0.2506 -0.9351
vn -0.0692 0.9636 -0.2582
vn -0.0692 -0.9636 -0.2582
vn -0.2506 -0.2506 -0.9351
vn -0.1862 0.6947 -0.6947
vt 0.750000 0.666667
vt 0.750000 0.833333
vt 0.666667 0.833333
vt 0.666667 0.666667
vt 0.750000 0.166667
vt 0.750000 0.333333
vt 0.666667 0.333333
vt 0.666667 0.166667
vt 0.750000 0.500000
vt 0.666667 0.500000
vt 0.708333 1.000000
vt 0.708333 0.000000
vt 0.583333 0.333333
vt 0.583333 0.166667
vt 0.583333 0.666667
vt 0.583333 0.500000
vt 0.625000 1.000000
vt 0.583333 0.833333
vt 0.625000 0.000000
vt 0.500000 0.333333
vt 0.500000 0.166667
vt 0.500000 0.666667
vt 0.500000 0.500000
vt 0.541667 1.000000
vt 0.500000 0.833333
vt 0.541667 0.000000
vt 0.416667 0.666667
vt 0.416667 0.500000
vt 0.458333 1.000000
vt 0.416667 0.833333
vt 0.458333 0.000000
vt 0.416667 0.166667
vt 0.416667 0.333333
vt 0.375000 1.000000
vt 0.333333 0.833333
vt 0.375000 0.000000
vt 0.333333 0.166667
vt 0.333333 0.500000
vt 0.333333 0.333333
vt 0.333333 0.666667
vt 0.291667 0.000000
vt 0.250000 0.166667
vt 0.250000 0.500000
vt 0.250000 0.333333
vt 0.250000 0.833333
vt 0.250000 0.666667
vt 0.291667 1.000000
vt 0.208333 0.000000
vt 0.166667 0.166667
vt 0.166667 0.500000
vt 0.166667 0.333333
vt 0.166667 0.833333
vt 0.166667 0.666667
vt 0.208333 1.000000
vt 0.125000 0.000000
vt 0.083333 0.166667
vt 0.083333 0.500000
vt 0.083333 0.333333
vt 0.083333 0.833333
vt 0.083333 0.666667
vt 0.125000 1.000000
vt 0.000000 0.500000
vt 0.000000 0.333333
vt 0.000000 0.833333
vt 0.000000 0.666667
vt 0.000000 0.166667
vt 0.041667 1.000000
vt 0.041667 0.000000
vt 1.000000 0.666667
vt 1.000000 0.833333
vt 0.916667 0.833333
vt 0.916667 0.666667
vt 1.000000 0.166667
vt 1.000000 0.333333
vt 0.916667 0.333333
vt 0.916667 0.166667
vt 1.000000 0.500000
vt 0.916667 0.500000
vt 0.958333 1.000000
vt 0.958333 0.000000
vt 0.833333 0.333333
vt 0.833333 0.166667
vt 0.833333 0.666667
vt 0.833333 0.500000
vt 0.875000 1.000000
vt 0.833333 0.833333
vt 0.875000 0.000000
vt 0.791667 1.000000
vt 0.791667 0.000000
s 0
usemtl Material
f 1/1/1 60/2/1 3/3/1 4/4/1
f 62/5/2 2/6/2 6/7/2 7/8/2
f 61/9/3 1/1/3 4/4/3 5/10/3
f 60/2/4 33/11/4 3/3/4
f 39/12/5 62/5/5 7/8/5
f 2/6/6 61/9/6 5/10/6 6/7/6
f 7/8/7 6/7/7 11/13/7 12/14/7
f 5/10/8 4/4/8 9/15/8 10/16/8
f 3/3/9 33/17/9 8/18/9
f 39/19/10 7/8/10 12/14/10
f 6/7/11 5/10/11 10/16/11 11/13/11
f 4/4/12 3/3/12 8/18/12 9/15/12
f 12/14/13 11/13/13 16/20/13 17/21/13
f 10/16/14 9/15/14 14/22/14 15/23/14
f 8/18/15 33/24/15 13/25/15
f 39/26/16 12/14/16 17/21/16
f 11/13/17 10/16/17 15/23/17 16/20/17
f 9/15/18 8/18/18 13/25/18 14/22/18
f 15/23/19 14/22/19 19/27/19 20/28/19
f 13/25/20 33/29/20 18/30/20
f 39/31/21 17/21/21 22/32/21
f 16/20/22 15/23/22 20/28/22 21/33/22
f 14/22/23 13/25/23 18/30/23 19/27/23
f 17/21/24 16/20/24 21/33/24 22/32/24
f 18/30/25 33/34/25 23/35/25
f 39/36/26 22/32/26 27/37/26
f 21/33/27 20/28/27 25/38/27 26/39/27
f 19/27/28 18/30/28 23/35/28 24/40/28
f 22/32/29 21/33/29 26/39/29 27/37/29
f 20/28/30 19/27/30 24/40/30 25/38/30
f 39/41/31 27/37/31 32/42/31
f 26/39/32 25/38/32 30/43/32 31/44/32
f 24/40/33 23/35/33 28/45/33 29/46/33
f 27/37/34 26/39/34 31/44/34 32/42/34
f 25/38/35 24/40/35 29/46/35 30/43/35
f 23/35/36 33/47/36 28/45/36
f 39/48/37 32/42/37 38/49/37
f 31/44/38 30/43/38 36/50/38 37/51/38
f 29/46/39 28/45/39 34/52/39 35/53/39
f 32/42/40 31/44/40 37/51/40 38/49/40
f 30/43/41 29/46/41 35/53/41 36/50/41
f 28/45/42 33/54/42 34/52/42
f 39/55/43 38/49/43 44/56/43
f 37/51/44 36/50/44 42/57/44 43/58/44
f 35/53/45 34/52/45 40/59/45 41/60/45
f 38/49/46 37/51/46 43/58/46 44/56/46
f 36/50/47 35/53/47 41/60/47 42/57/47
f 34/52/48 33/61/48 40/59/48
f 43/58/49 42/57/49 47/62/49 48/63/49
f 41/60/50 40/59/50 45/64/50 46/65/50
f 44/56/51 43/58/51 48/63/51 49/66/51
f 42/57/52 41/60/52 46/65/52 47/62/52
f 40/59/53 33/67/53 45/64/53
f 39/68/54 44/56/54 49/66/54
f 46/69/55 45/70/55 50/71/55 51/72/55
f 49/73/56 48/74/56 53/75/56 54/76/56
f 47/77/57 46/69/57 51/72/57 52/78/57
f 45/70/58 33/79/58 50/71/58
f 39/80/59 49/73/59 54/76/59
f 48/74/60 47/77/60 52/78/60 53/75/60
f 54/76/61 53/75/61 58/81/61 59/82/61
f 52/78/62 51/72/62 56/83/62 57/84/62
f 50/71/63 33/85/63 55/86/63
f 39/87/64 54/76/64 59/82/64
f 53/75/65 52/78/65 57/84/65 58/81/65
f 51/72/66 50/71/66 55/86/66 56/83/66
f 59/82/67 58/81/67 2/6/67 62/5/67
f 57/84/68 56/83/68 1/1/68 61/9/68
f 55/86/69 33/88/69 60/2/69
f 39/89/70 59/82/70 62/5/70
f 58/81/71 57/84/71 61/9/71 2/6/71
f 56/83/72 55/86/72 60/2/72 1/1/72
